HIERARCHY
ROOT Spine
{
    OFFSET 0.0 0.0 -0.0
    CHANNELS 6 Xposition Yposition Zposition Zrotation Xrotation Yrotation
    JOINT ShoulderCenter
    {
        OFFSET 0.0 32.08944320678711 0.0
        CHANNELS 3 Zrotation Xrotation Yrotation
        JOINT LeftShoulder
        {
            OFFSET 20.294355392456055 0.0 0.0
            CHANNELS 3 Zrotation Xrotation Yrotation
            JOINT LeftElbow
            {
                OFFSET 27.916940689086914 0.0 0.0
                CHANNELS 3 Zrotation Xrotation Yrotation
                JOINT LeftHand
                {
                    OFFSET 31.75433349609375 0.0 0.0
                    CHANNELS 3 Zrotation Xrotation Yrotation
                    End Site
                    {
                        OFFSET 12.70173454284668 0.0 0.0
                    }
                }
            }
        }
        JOINT RightShoulder
        {
            OFFSET -20.294355392456055 0.0 0.0
            CHANNELS 3 Zrotation Xrotation Yrotation
            JOINT RightElbow
            {
                OFFSET -27.916940689086914 0.0 0.0
                CHANNELS 3 Zrotation Xrotation Yrotation
                JOINT RightHand
                {
                    OFFSET -31.75433349609375 0.0 0.0
                    CHANNELS 3 Zrotation Xrotation Yrotation
                    End Site
                    {
                        OFFSET -12.70173454284668 0.0 0.0
                    }
                }
            }
        }
        End Site
        {
            OFFSET 0.0 12.835777282714844 0.0
        }
    }
    JOINT LeftHip
    {
        OFFSET 16.545842549711885 -16.545842549711885 0.0
        CHANNELS 3 Zrotation Xrotation Yrotation
        JOINT LeftKnee
        {
            OFFSET 0.0 -42.84370803833008 0.0
            CHANNELS 3 Zrotation Xrotation Yrotation
            JOINT LeftFoot
            {
                OFFSET 0.0 -42.232818603515625 0.0
                CHANNELS 3 Zrotation Xrotation Yrotation
                End Site
                {
                    OFFSET 0.0 0.0 16.89312744140625
                }
            }
        }
    }
    JOINT RightHip
    {
        OFFSET -16.545842549711885 -16.545842549711885 0.0
        CHANNELS 3 Zrotation Xrotation Yrotation
        JOINT RightKnee
        {
            OFFSET 0.0 -42.84370803833008 0.0
            CHANNELS 3 Zrotation Xrotation Yrotation
            JOINT RightFoot
            {
                OFFSET 0.0 -42.232818603515625 0.0
                CHANNELS 3 Zrotation Xrotation Yrotation
                End Site
                {
                    OFFSET 0.0 0.0 16.89312744140625
                }
            }
        }
    }
}
MOTION
Frames: 4
Frame Time: 0.03333333333333333
56.19999694824219 8.699999809265137 -2.200000047683716 3.0696980554968913 8.95069166928543 -30.325411731381607 -1.1135971980175898e-07 8.32634686146402e-07 2.900735668257181 92.04541714838794 -9.305802372030312 172.5763480108066 -4.540766279073303e-07 5.181617017312641e-06 109.46750724734719 6.3611093629270335e-15 1.7655625192200634e-31 3.1805546814635168e-15 -101.81580353038113 -18.430365606961733 -175.94482761612724 1.6481066140922136e-07 -3.649939651401476e-07 -110.56288238899361 0.0 0.0 -6.361109362927033e-15 8.833748271450448 -31.3363246339317 34.96284843675928 13.633893352119639 21.808914895313123 -69.35964442558796 0.0 0.0 1.3169484227934873e-15 0.7082940333188984 -17.223273946200166 3.787836455372462 -1.6980874240381043 19.179126703839998 43.5010296988858 3.0173187584327256e-34 -9.93923337957349e-17 3.4787316828507215e-16
56.099998474121094 8.199999809265137 -2.700000047683716 5.389304714508745 6.961321415115977 -33.635936611521096 4.5800969470835275e-07 7.401734774686401e-07 1.4991652826740185 91.04196420507594 -9.474757873986173 172.52794121805948 -5.34437821164049e-07 1.5375533491698125e-06 109.66665167551893 -6.361109362927033e-15 0.0 0.0 -100.42803615197448 -18.178190949846286 -169.94448694469085 -1.6585330790435861e-06 2.0072846278753834e-07 -112.5026727361197 -3.531125038440127e-31 -6.3611093629270335e-15 -6.3611093629270335e-15 7.201727749388082 -30.721116572729187 32.18667211210661 12.595300615829464 23.571530556790773 -69.82288376126083 0.0 0.0 -4.522351187705938e-15 -1.9447475966864682 -18.395892717098747 2.4163822158902306 -2.2003822460764484 21.600170577735746 49.55084565969716 -1.517280289954742e-32 1.5902773407317584e-15 1.0933156717530838e-15
55.900001525878906 7.699999809265137 -3.200000047683716 7.346665829346062 5.16813057952014 -35.77108120833598 4.961957336571568e-07 3.222798569603815e-07 -0.7707829219934296 90.25883995911889 -9.039387209043364 172.75716156089678 5.2849483681001796e-06 -3.6980648973305735e-06 109.75229883606912 0.0 6.3611093629270335e-15 0.0 -99.57134767118247 -17.915083485983573 -165.00517415529836 3.871049348571047e-06 -1.5143878466959793e-06 -114.62212472574973 -3.1805546814635168e-15 0.0 0.0 5.938432969409096 -30.87540349588591 32.93357793948133 12.927804647526703 25.444672232597235 -72.35111850574035 -7.951386703658791e-16 -3.9756933518293955e-16 2.6338968455869743e-15 -3.8942333085968883 -19.623403232608933 -0.5416026492113027 -3.7178069822256377 23.55579465143327 55.20386721964118 4.275971726236091e-32 -1.5902773407317584e-15 3.0811623476677818e-15
55.69999694824219 7.299999713897705 -3.4000000953674316 9.315705222161291 3.207126238223571 -37.653218200343396 -5.281992333235428e-07 9.24808774713012e-07 -2.5276915080173725 89.14342495890665 -8.962753504697426 172.88888082471811 4.627486115760699e-06 -4.385778932361365e-06 109.7270042738118 -1.7655625192200634e-31 -6.3611093629270335e-15 -3.1805546814635168e-15 -99.30676931984462 -17.188547855041612 -160.48043452655253 2.2378212491213988e-06 1.5856368951421654e-06 -115.72480836140939 -1.7655625192200634e-31 3.1805546814635168e-15 6.3611093629270335e-15 4.482739388390153 -31.049959680454993 33.48358976109762 12.971987018337325 27.500857363579303 -74.07856970190458 2.31040407788563e-32 -7.951386703658792e-16 3.3296431821571193e-15 -5.959113443032506 -20.3473241266142 -1.8738252301328053 -4.994954198919679 25.152233501642165 59.36310869662703 -7.951386703658791e-16 1.9878466759146977e-16 -1.2921003393445536e-15
